<?xml version="1.0" standalone="no"?><!DOCTYPE svg PUBLIC "-//W3C//DTD SVG 1.1//EN" "http://www.w3.org/Graphics/SVG/1.1/DTD/svg11.dtd"><svg t="1518357075496" class="icon" style="" viewBox="0 0 1024 1024" version="1.1" xmlns="http://www.w3.org/2000/svg" p-id="616" xmlns:xlink="http://www.w3.org/1999/xlink" width="200" height="200"><defs><style type="text/css"></style></defs><path d="M67.969 562.046c0 23.955 19.441 43.396 43.396 43.396 10.773 0 20.33-4.346 27.937-10.86l0.425 0.425 2.235-2.235c0.044-0.044 0.067-0.063 0.112-0.106l358.336-358.338c6.256-6.239 16.377-6.239 22.61 0l360.685 360.679 0.658-0.659c7.647 6.685 17.356 11.093 28.3 11.093 23.935 0 43.374-19.441 43.374-43.396 0-15.289-8.389-28.084-20.355-35.812-0.724-1.344-0.576-2.983-1.705-4.112l-410.958-410.948c-6.234-6.244-16.354-6.244-22.61 0l-410.95 410.949c-1.279 1.279-1.172 3.108-1.916 4.641-11.522 7.794-19.571 20.336-19.571 35.283zM67.969 874.116c0 23.955 19.441 43.394 43.396 43.394 10.773 0 20.33-4.342 27.937-10.855l0.425 0.425 2.235-2.235c0.044-0.045 0.067-0.065 0.112-0.109l358.336-358.339c6.256-6.239 16.377-6.239 22.61 0l360.685 360.684 0.658-0.66c7.647 6.685 17.356 11.091 28.3 11.091 23.935 0 43.374-19.439 43.374-43.394 0-15.289-8.389-28.087-20.355-35.815-0.724-1.341-0.576-2.98-1.705-4.109l-410.958-410.951c-6.234-6.239-16.354-6.239-22.61 0l-410.95 410.953c-1.279 1.277-1.172 3.107-1.916 4.641-11.522 7.794-19.571 20.334-19.571 35.282z" p-id="617" fill="#8a8a8a"></path></svg>